<svg width="307" height="300" viewBox="0 0 307 300" fill="none" xmlns="http://www.w3.org/2000/svg">
<path d="M123.86 223V148.174L16.8805 89.2V223H4V0H16.8805V78.547L123.86 137.521V0H136.741V223H123.86Z" fill="#404A55"/>
<path d="M269.616 223L212.054 118.933H210.265L138.172 223H123.86L203.467 107.34L124.934 0H139.603L210.981 96.0607H212.77L269.616 0H283.927L219.568 107.027L284.285 223H269.616Z" fill="#404A55"/>
<path d="M145.148 223V141.968L36.4561 80.96V223H22.9139V0H36.4561V69.9396L145.148 130.948V0H158.69V223H145.148Z" fill="#CDC6B5"/>
<path d="M291.577 223L234.465 119.318H232.585L160.195 223H145.148L225.437 107.325L146.277 0H161.7L233.337 95.6565H235.218L291.577 0H306.624L242.365 107.001L307 223H291.577Z" fill="#CDC6B5"/>
<line x1="301.624" y1="223" x2="301.624" stroke="#CDC6B5" stroke-width="10"/>
<line x1="278.927" y1="223" x2="278.927" stroke="#404A55" stroke-width="10"/>
<g filter="url(#filter0_d)">
<path d="M7.458 268L4.19 254.928H5.672L8.351 266.119H8.465L11.144 254.928H12.569L9.32 268H7.458ZM16.3864 268V254.928H22.2764V256.182H17.8114V261.065H21.7824V262.3H17.8114V268H16.3864ZM32.3692 268L29.7092 262.642H29.5952L26.9542 268H25.4152L28.7782 261.426L25.4532 254.928H27.0492L29.6712 260.191H29.7662L32.3882 254.928H33.9272L30.6022 261.388L33.9652 268H32.3692ZM49.5026 267.924C49.224 267.987 48.882 268.038 48.4766 268.076C48.084 268.127 47.7103 268.152 47.3556 268.152C46.2156 268.152 45.3796 267.981 44.8476 267.639C44.3283 267.297 43.9736 266.676 43.7836 265.777C43.6063 264.865 43.5176 263.427 43.5176 261.464C43.5176 259.513 43.6063 258.088 43.7836 257.189C43.9736 256.277 44.3283 255.65 44.8476 255.308C45.3796 254.953 46.2156 254.776 47.3556 254.776C47.7103 254.776 48.084 254.801 48.4766 254.852C48.8693 254.903 49.1923 254.966 49.4456 255.042V256.201C48.7363 256.087 48.141 256.03 47.6596 256.03C46.7856 256.03 46.1713 256.144 45.8166 256.372C45.462 256.6 45.2276 257.069 45.1136 257.778C45.0123 258.487 44.9616 259.716 44.9616 261.464C44.9616 263.212 45.0123 264.441 45.1136 265.15C45.2276 265.859 45.462 266.328 45.8166 266.556C46.1713 266.784 46.7856 266.898 47.6596 266.898C48.293 266.898 48.9073 266.841 49.5026 266.727V267.924ZM57.319 268.152C56.0777 268.152 55.191 267.981 54.659 267.639C54.127 267.297 53.785 266.695 53.633 265.834C53.481 264.96 53.405 263.503 53.405 261.464C53.405 259.425 53.481 257.974 53.633 257.113C53.785 256.239 54.127 255.631 54.659 255.289C55.191 254.947 56.0777 254.776 57.319 254.776C58.5604 254.776 59.447 254.947 59.979 255.289C60.511 255.631 60.853 256.239 61.005 257.113C61.157 257.974 61.233 259.425 61.233 261.464C61.233 263.503 61.157 264.96 61.005 265.834C60.853 266.695 60.511 267.297 59.979 267.639C59.447 267.981 58.5604 268.152 57.319 268.152ZM57.319 266.898C58.1297 266.898 58.6934 266.803 59.01 266.613C59.3267 266.423 59.5357 265.973 59.637 265.264C59.7384 264.555 59.789 263.288 59.789 261.464C59.789 259.64 59.7384 258.373 59.637 257.664C59.5357 256.955 59.3267 256.505 59.01 256.315C58.6934 256.125 58.1297 256.03 57.319 256.03C56.5084 256.03 55.9447 256.125 55.628 256.315C55.3114 256.505 55.1024 256.955 55.001 257.664C54.8997 258.373 54.849 259.64 54.849 261.464C54.849 263.288 54.8997 264.555 55.001 265.264C55.1024 265.973 55.3114 266.423 55.628 266.613C55.9447 266.803 56.5084 266.898 57.319 266.898ZM74.43 268V257.417H74.354L71.447 268H70.155L67.267 257.417H67.191V268H65.842V254.928H67.894L70.782 265.549H70.896L73.803 254.928H75.817V268H74.43ZM80.7578 254.928H84.6338C85.5204 254.928 86.1854 255.105 86.6288 255.46C87.0721 255.802 87.3571 256.258 87.4838 256.828C87.6231 257.385 87.6928 258.12 87.6928 259.032C87.6928 259.919 87.6231 260.647 87.4838 261.217C87.3571 261.774 87.0721 262.23 86.6288 262.585C86.1854 262.94 85.5204 263.117 84.6338 263.117H82.1828V268H80.7578V254.928ZM84.2538 261.882C84.8618 261.882 85.3051 261.781 85.5838 261.578C85.8751 261.375 86.0588 261.084 86.1348 260.704C86.2234 260.311 86.2678 259.754 86.2678 259.032C86.2678 258.297 86.2234 257.74 86.1348 257.36C86.0588 256.967 85.8814 256.676 85.6028 256.486C85.3241 256.283 84.8808 256.182 84.2728 256.182H82.1828V261.882H84.2538ZM95.4608 268.152C94.2195 268.152 93.3328 267.981 92.8008 267.639C92.2688 267.297 91.9268 266.695 91.7748 265.834C91.6228 264.96 91.5468 263.503 91.5468 261.464C91.5468 259.425 91.6228 257.974 91.7748 257.113C91.9268 256.239 92.2688 255.631 92.8008 255.289C93.3328 254.947 94.2195 254.776 95.4608 254.776C96.7021 254.776 97.5888 254.947 98.1208 255.289C98.6528 255.631 98.9948 256.239 99.1468 257.113C99.2988 257.974 99.3748 259.425 99.3748 261.464C99.3748 263.503 99.2988 264.96 99.1468 265.834C98.9948 266.695 98.6528 267.297 98.1208 267.639C97.5888 267.981 96.7021 268.152 95.4608 268.152ZM95.4608 266.898C96.2715 266.898 96.8351 266.803 97.1518 266.613C97.4685 266.423 97.6775 265.973 97.7788 265.264C97.8801 264.555 97.9308 263.288 97.9308 261.464C97.9308 259.64 97.8801 258.373 97.7788 257.664C97.6775 256.955 97.4685 256.505 97.1518 256.315C96.8351 256.125 96.2715 256.03 95.4608 256.03C94.6501 256.03 94.0865 256.125 93.7698 256.315C93.4531 256.505 93.2441 256.955 93.1428 257.664C93.0415 258.373 92.9908 259.64 92.9908 261.464C92.9908 263.288 93.0415 264.555 93.1428 265.264C93.2441 265.973 93.4531 266.423 93.7698 266.613C94.0865 266.803 94.6501 266.898 95.4608 266.898ZM106.929 268.152C105.751 268.152 104.668 268.07 103.68 267.905V266.67C104.123 266.733 104.611 266.79 105.143 266.841C105.675 266.879 106.124 266.898 106.492 266.898C106.998 266.898 107.397 266.866 107.689 266.803C107.993 266.727 108.24 266.6 108.43 266.423C108.607 266.258 108.721 266.018 108.772 265.701C108.835 265.384 108.867 264.96 108.867 264.428C108.867 263.731 108.841 263.244 108.791 262.965C108.74 262.686 108.62 262.49 108.43 262.376C108.252 262.249 107.929 262.148 107.461 262.072L105.257 261.73C104.725 261.641 104.326 261.464 104.06 261.198C103.794 260.919 103.616 260.565 103.528 260.134C103.452 259.703 103.414 259.127 103.414 258.405C103.414 257.088 103.692 256.157 104.25 255.612C104.807 255.055 105.7 254.776 106.929 254.776C108.107 254.776 109.069 254.877 109.817 255.08V256.258C108.968 256.106 108.113 256.03 107.252 256.03C106.707 256.03 106.276 256.081 105.96 256.182C105.643 256.271 105.402 256.41 105.238 256.6C105.073 256.79 104.965 257.024 104.915 257.303C104.864 257.582 104.839 257.936 104.839 258.367C104.839 258.95 104.864 259.374 104.915 259.64C104.965 259.893 105.067 260.071 105.219 260.172C105.371 260.273 105.624 260.356 105.979 260.419L108.107 260.761C108.639 260.85 109.057 260.983 109.361 261.16C109.665 261.337 109.899 261.641 110.064 262.072C110.216 262.439 110.292 263.168 110.292 264.257C110.292 265.232 110.184 265.999 109.969 266.556C109.766 267.113 109.418 267.519 108.924 267.772C108.442 268.025 107.777 268.152 106.929 268.152ZM114.745 268V254.928H116.17V268H114.745ZM123.023 268V256.22H120.116V254.928H127.355V256.22H124.448V268H123.023ZM134.677 268.152C133.435 268.152 132.549 267.981 132.017 267.639C131.485 267.297 131.143 266.695 130.991 265.834C130.839 264.96 130.763 263.503 130.763 261.464C130.763 259.425 130.839 257.974 130.991 257.113C131.143 256.239 131.485 255.631 132.017 255.289C132.549 254.947 133.435 254.776 134.677 254.776C135.918 254.776 136.805 254.947 137.337 255.289C137.869 255.631 138.211 256.239 138.363 257.113C138.515 257.974 138.591 259.425 138.591 261.464C138.591 263.503 138.515 264.96 138.363 265.834C138.211 266.695 137.869 267.297 137.337 267.639C136.805 267.981 135.918 268.152 134.677 268.152ZM134.677 266.898C135.487 266.898 136.051 266.803 136.368 266.613C136.684 266.423 136.893 265.973 136.995 265.264C137.096 264.555 137.147 263.288 137.147 261.464C137.147 259.64 137.096 258.373 136.995 257.664C136.893 256.955 136.684 256.505 136.368 256.315C136.051 256.125 135.487 256.03 134.677 256.03C133.866 256.03 133.302 256.125 132.986 256.315C132.669 256.505 132.46 256.955 132.359 257.664C132.257 258.373 132.207 259.64 132.207 261.464C132.207 263.288 132.257 264.555 132.359 265.264C132.46 265.973 132.669 266.423 132.986 266.613C133.302 266.803 133.866 266.898 134.677 266.898ZM148.975 268L147.341 262.737H147.075H144.624V268H143.199V254.928H147.189C148.089 254.928 148.76 255.093 149.203 255.422C149.647 255.751 149.932 256.188 150.058 256.733C150.198 257.278 150.267 257.981 150.267 258.842C150.267 259.792 150.166 260.577 149.963 261.198C149.773 261.806 149.355 262.237 148.709 262.49L150.476 268H148.975ZM146.828 261.502C147.424 261.502 147.867 261.407 148.158 261.217C148.45 261.027 148.633 260.755 148.709 260.4C148.798 260.033 148.842 259.513 148.842 258.842C148.842 258.158 148.798 257.639 148.709 257.284C148.633 256.929 148.456 256.657 148.177 256.467C147.899 256.277 147.455 256.182 146.847 256.182H144.624V261.502H146.828ZM160.652 268V253.883H162.001V268H160.652ZM180.121 268L178.031 257.379H177.955L175.884 268H174.098L171.666 254.928H173.129L175.01 265.929H175.105L177.214 254.928H178.81L180.938 265.929H181.052L182.895 254.928H184.32L181.888 268H180.121ZM188.146 268V254.928H194.321V256.182H189.571V260.761H193.694V262.015H189.571V266.746H194.321V268H188.146ZM198.646 254.928H202.617C203.694 254.928 204.466 255.207 204.935 255.764C205.404 256.321 205.638 257.132 205.638 258.196C205.638 259.095 205.48 259.798 205.163 260.305C204.859 260.799 204.371 261.122 203.7 261.274V261.35C204.485 261.515 205.024 261.869 205.315 262.414C205.606 262.946 205.752 263.662 205.752 264.561C205.752 265.625 205.524 266.467 205.068 267.088C204.612 267.696 203.77 268 202.541 268H198.646V254.928ZM202.218 260.742C202.889 260.742 203.39 260.558 203.719 260.191C204.048 259.824 204.213 259.247 204.213 258.462C204.213 257.892 204.156 257.449 204.042 257.132C203.928 256.803 203.725 256.562 203.434 256.41C203.155 256.258 202.75 256.182 202.218 256.182H200.052V260.742H202.218ZM202.275 266.746C203.06 266.746 203.592 266.569 203.871 266.214C204.162 265.859 204.308 265.251 204.308 264.39C204.308 263.516 204.156 262.902 203.852 262.547C203.548 262.18 203.022 261.996 202.275 261.996H200.052V266.746H202.275ZM216.213 254.928H219.329C220.596 254.928 221.495 255.093 222.027 255.422C222.572 255.751 222.92 256.347 223.072 257.208C223.237 258.057 223.319 259.475 223.319 261.464C223.319 263.453 223.237 264.878 223.072 265.739C222.92 266.588 222.572 267.177 222.027 267.506C221.495 267.835 220.596 268 219.329 268H216.213V254.928ZM219.272 266.746C220.146 266.746 220.741 266.657 221.058 266.48C221.387 266.29 221.609 265.853 221.723 265.169C221.837 264.485 221.894 263.25 221.894 261.464C221.894 259.691 221.837 258.462 221.723 257.778C221.609 257.081 221.387 256.644 221.058 256.467C220.729 256.277 220.133 256.182 219.272 256.182H217.619V266.746H219.272ZM227.937 268V254.928H234.112V256.182H229.362V260.761H233.485V262.015H229.362V266.746H234.112V268H227.937ZM241.382 268.152C240.204 268.152 239.121 268.07 238.133 267.905V266.67C238.576 266.733 239.064 266.79 239.596 266.841C240.128 266.879 240.578 266.898 240.945 266.898C241.452 266.898 241.851 266.866 242.142 266.803C242.446 266.727 242.693 266.6 242.883 266.423C243.06 266.258 243.174 266.018 243.225 265.701C243.288 265.384 243.32 264.96 243.32 264.428C243.32 263.731 243.295 263.244 243.244 262.965C243.193 262.686 243.073 262.49 242.883 262.376C242.706 262.249 242.383 262.148 241.914 262.072L239.71 261.73C239.178 261.641 238.779 261.464 238.513 261.198C238.247 260.919 238.07 260.565 237.981 260.134C237.905 259.703 237.867 259.127 237.867 258.405C237.867 257.088 238.146 256.157 238.703 255.612C239.26 255.055 240.153 254.776 241.382 254.776C242.56 254.776 243.523 254.877 244.27 255.08V256.258C243.421 256.106 242.566 256.03 241.705 256.03C241.16 256.03 240.73 256.081 240.413 256.182C240.096 256.271 239.856 256.41 239.691 256.6C239.526 256.79 239.419 257.024 239.368 257.303C239.317 257.582 239.292 257.936 239.292 258.367C239.292 258.95 239.317 259.374 239.368 259.64C239.419 259.893 239.52 260.071 239.672 260.172C239.824 260.273 240.077 260.356 240.432 260.419L242.56 260.761C243.092 260.85 243.51 260.983 243.814 261.16C244.118 261.337 244.352 261.641 244.517 262.072C244.669 262.439 244.745 263.168 244.745 264.257C244.745 265.232 244.637 265.999 244.422 266.556C244.219 267.113 243.871 267.519 243.377 267.772C242.896 268.025 242.231 268.152 241.382 268.152ZM249.198 268V254.928H250.623V268H249.198ZM259.054 262.262V261.046H262.379V267.791C261.935 267.892 261.422 267.975 260.84 268.038C260.27 268.114 259.763 268.152 259.32 268.152C258.167 268.152 257.312 267.987 256.755 267.658C256.197 267.316 255.811 266.683 255.596 265.758C255.38 264.833 255.273 263.402 255.273 261.464C255.273 259.551 255.38 258.133 255.596 257.208C255.811 256.283 256.197 255.65 256.755 255.308C257.312 254.953 258.173 254.776 259.339 254.776C259.845 254.776 260.384 254.814 260.954 254.89C261.536 254.966 261.999 255.048 262.341 255.137V256.315C261.999 256.239 261.581 256.176 261.087 256.125C260.605 256.062 260.219 256.03 259.928 256.03C258.902 256.03 258.186 256.125 257.781 256.315C257.375 256.505 257.097 256.961 256.945 257.683C256.793 258.405 256.717 259.665 256.717 261.464C256.717 263.111 256.774 264.301 256.888 265.036C257.002 265.758 257.236 266.252 257.591 266.518C257.945 266.784 258.528 266.917 259.339 266.917C259.997 266.917 260.548 266.866 260.992 266.765V262.262H259.054ZM273.007 268L268.504 257.949H268.428V268H267.06V254.928H268.561L272.988 264.808H273.064V254.928H274.432V268H273.007ZM279.378 268V254.928H285.553V256.182H280.803V260.761H284.926V262.015H280.803V266.746H285.553V268H279.378ZM295.654 268L294.02 262.737H293.754H291.303V268H289.878V254.928H293.868C294.767 254.928 295.439 255.093 295.882 255.422C296.325 255.751 296.61 256.188 296.737 256.733C296.876 257.278 296.946 257.981 296.946 258.842C296.946 259.792 296.845 260.577 296.642 261.198C296.452 261.806 296.034 262.237 295.388 262.49L297.155 268H295.654ZM293.507 261.502C294.102 261.502 294.546 261.407 294.837 261.217C295.128 261.027 295.312 260.755 295.388 260.4C295.477 260.033 295.521 259.513 295.521 258.842C295.521 258.158 295.477 257.639 295.388 257.284C295.312 256.929 295.135 256.657 294.856 256.467C294.577 256.277 294.134 256.182 293.526 256.182H291.303V261.502H293.507Z" fill="#404A55"/>
</g>
<defs>
<filter id="filter0_d" x="0.189941" y="253.883" width="300.965" height="22.269" filterUnits="userSpaceOnUse" color-interpolation-filters="sRGB">
<feFlood flood-opacity="0" result="BackgroundImageFix"/>
<feColorMatrix in="SourceAlpha" type="matrix" values="0 0 0 0 0 0 0 0 0 0 0 0 0 0 0 0 0 0 127 0"/>
<feOffset dy="4"/>
<feGaussianBlur stdDeviation="2"/>
<feColorMatrix type="matrix" values="0 0 0 0 0 0 0 0 0 0 0 0 0 0 0 0 0 0 0.25 0"/>
<feBlend mode="normal" in2="BackgroundImageFix" result="effect1_dropShadow"/>
<feBlend mode="normal" in="SourceGraphic" in2="effect1_dropShadow" result="shape"/>
</filter>
</defs>
</svg>
