<svg width="303" height="223" viewBox="0 0 303 223" fill="none" xmlns="http://www.w3.org/2000/svg">
<path d="M119.86 223V148.174L12.8805 89.2V223H0V0H12.8805V78.547L119.86 137.521V0H132.741V223H119.86Z" fill="#404A55"/>
<path d="M265.616 223L208.054 118.933H206.265L134.172 223H119.86L199.467 107.34L120.934 0H135.603L206.981 96.0607H208.77L265.616 0H279.927L215.568 107.027L280.285 223H265.616Z" fill="#404A55"/>
<path d="M141.148 223V141.968L32.4561 80.96V223H18.9139V0H32.4561V69.9396L141.148 130.948V0H154.69V223H141.148Z" fill="#CDC6B5"/>
<path d="M287.577 223L230.465 119.318H228.585L156.195 223H141.148L221.437 107.325L142.277 0H157.7L229.337 95.6565H231.218L287.577 0H302.624L238.365 107.001L303 223H287.577Z" fill="#CDC6B5"/>
<line x1="297.624" y1="223" x2="297.624" stroke="#CDC6B5" stroke-width="10"/>
<line x1="274.927" y1="223" x2="274.927" stroke="#404A55" stroke-width="10"/>
</svg>
